<svg width="118" height="96" viewBox="0 0 118 96" fill="none" xmlns="http://www.w3.org/2000/svg">
<path d="M50.358 0L50.7848 1.92428C43.2453 3.91982 36.4882 8.05345 30.5136 14.3252C24.5389 20.4543 21.5515 28.2227 21.5515 37.6303C21.5515 45.1849 24.1832 51.6704 29.4467 57.0869C34.7101 62.5033 41.4671 65.6392 49.7179 66.4944C49.7179 71.9109 48.7221 76.8998 46.7306 81.461C44.8813 85.8797 42.1073 89.4432 38.4087 92.1515C34.8523 94.7172 30.6558 96 25.8192 96C17.8529 96 11.5226 92.5791 6.82821 85.7372C2.27607 78.8953 0 70.6993 0 61.1492C0 50.8864 2.41832 41.3363 7.25497 32.4989C12.2339 23.6615 18.5642 16.3207 26.2459 10.4766C33.9277 4.48998 41.965 0.997773 50.358 0ZM117.573 0L118 1.92428C110.461 3.91982 103.703 8.05345 97.7288 14.3252C91.7541 20.4543 88.7667 28.2227 88.7667 37.6303C88.7667 45.1849 91.3984 51.6704 96.6618 57.0869C101.925 62.5033 108.682 65.6392 116.933 66.4944C116.933 71.9109 115.937 76.8998 113.946 81.461C112.096 85.8797 109.322 89.4432 105.624 92.1515C102.068 94.7172 97.871 96 93.0344 96C85.0681 96 78.7378 92.5791 74.0434 85.7372C69.4913 78.8953 67.2152 70.6993 67.2152 61.1492C67.2152 50.8864 69.6335 41.3363 74.4702 32.4989C79.4491 23.6615 85.7794 16.3207 93.4611 10.4766C101.143 4.48998 109.18 0.997773 117.573 0Z" fill="#EA862E"/>
</svg>
