<svg width="24" height="19" viewBox="0 0 24 19" fill="none" xmlns="http://www.w3.org/2000/svg">
<path d="M0.502092 18.5L0 16.6667C1.51743 16.3333 2.82287 15.6222 3.91632 14.5333C5.03208 13.4222 5.58996 12.1222 5.58996 10.6333C5.58996 9.34444 5.1325 8.28889 4.21757 7.46667C3.32497 6.64444 2.16457 6.17778 0.736402 6.06667C0.736402 5.04444 0.914923 4.12222 1.27197 3.3C1.62901 2.45556 2.1311 1.77778 2.77824 1.26667C3.4477 0.755556 4.23989 0.5 5.15481 0.5C6.64993 0.5 7.84379 1.14444 8.7364 2.43333C9.62901 3.7 10.0753 5.3 10.0753 7.23333C10.0753 9.25556 9.60669 11.0556 8.66946 12.6333C7.75453 14.2111 6.57183 15.5111 5.12134 16.5333C3.67085 17.5556 2.1311 18.2111 0.502092 18.5ZM14.4268 18.5L13.9247 16.6667C15.4421 16.3333 16.7476 15.6222 17.841 14.5333C18.9568 13.4222 19.5146 12.1222 19.5146 10.6333C19.5146 9.34444 19.0572 8.28889 18.1423 7.46667C17.2497 6.64444 16.0893 6.17778 14.6611 6.06667C14.6611 5.04444 14.8396 4.12222 15.1967 3.3C15.5537 2.45556 16.0558 1.77778 16.7029 1.26667C17.3724 0.755556 18.1646 0.5 19.0795 0.5C20.5746 0.5 21.7685 1.14444 22.6611 2.43333C23.5537 3.7 24 5.3 24 7.23333C24 9.25556 23.5314 11.0556 22.5941 12.6333C21.6792 14.2111 20.4965 15.5111 19.046 16.5333C17.5955 17.5556 16.0558 18.2111 14.4268 18.5Z" fill="#EA862E"/>
</svg>
